<?xml version="1.0" encoding="UTF-8"?>
<svg version="1.1" viewBox="0 0 2048 1260" width="286" height="176" xmlns="http://www.w3.org/2000/svg">
<path transform="translate(75,307)" d="m0 0h81l51 2 30 3 25 6 19 7 16 8 15 10 13 11 10 11 9 15 5 11 5 16 3 15 1 9v17l-2 18-4 15-4 11-8 15-11 14-7 7-16 12-21 10-10 4-1 1 10 5 23 10 14 9 11 9 13 13 11 15 8 16 7 21 3 20 1 15-1 17-4 22-6 18-8 16-9 14-12 14-9 8-15 10-16 8-20 8-23 7-28 6-31 4-26 2-53 1h-69l-39-1-1-2v-509l1-22 1-1zm46 90-2 1v122h47l18-2 19-5 16-8 9-7 6-8 5-11 3-10 1-7v-13l-2-11-5-12-7-9-8-7-12-6-16-4-28-3zm0 210-2 1v138l4 1h38l25-2 19-3 15-5 13-8 9-8 7-11 5-13 2-9 1-12-2-15-6-18-6-10-6-7-10-7-15-6-19-4-26-2z" fill="#2B2F77"/>
<path transform="translate(1038,307)" d="m0 0h33l2 1v230l7-4 21-28 11-14 14-19 14-18 12-16 11-14 9-12 14-19 11-14 13-18 10-13 10-14 12-14 11-9 9-4 14-1h125l2 2-14 17-13 17-11 14-11 13-9 12-13 16-10 13-11 14-13 16-10 13-9 11-14 18-13 16-12 15-12 16-11 13-13 18 1 5 10 13 14 18 9 12 14 18 13 17 11 14 30 39 14 18 11 14 10 13 13 17 12 15 13 17 8 10 13 16 18 24v2h-149l-8-7-13-16-12-16-12-15-12-16-11-14-12-16-14-18-30-39-12-15-14-19-11-13-8-10-13-17-9-11-5-4v244l-1 1-23 1h-95l-5-2-1-3v-530z" fill="#2B2F77"/>
<path transform="translate(639,294)" d="m0 0h3l12 23 62 124 11 23 40 80 20 41 58 116 11 23 30 60 11 23 10 19 5 13v3l-28 1h-95l-5-5-6-9-9-19-32-64-11-23-16-32-11-23-35-70-11-23-9-17-4-5-31 62-11 23-12 24-11 23-41 82-11 23-25 50-3 3h-127l1-5 10-19 21-42 10-21 8-16 10-19 11-23 11-21 11-23 46-92 11-23 10-19 12-25 8-16 10-19 11-24 10-19 8-17 10-19 8-17 10-19 8-17 10-19z" fill="#B5282F"/>
<path transform="translate(1458,307)" d="m0 0h139l202 1 1 10v98l-3 2-133 1-1 421-3 2h-121l-1-1-1-12v-411h-57l-92 1h-23l5-8 9-11 13-16 10-13 10-12 10-13 8-10 11-13 7-7 5-6z" fill="#2B2F77"/>
<path transform="translate(1836,308)" d="m0 0h125l1 1v532l-2 1-84 1h-38l-2-1-1-3-1-12v-503l1-14z" fill="#2B2F77"/>
<path transform="translate(659,925)" d="m0 0 6 1 5 5 6 9 36 72 10 19 14 27 12 22 21 41 12 22 11 22 4 2 6-9 15-28 9-16 28-52 24-44 15-28 13-24 9-16 10-19 6-5 6 1 3 6 4 29 5 51 7 63 13 110 6 55v9l-1 1h-45l-2-11-4-40-3-37-10-102-3-26-6 5-9 15-48 88-15 29-13 28-12 26-7 16-5 9-2 3-5-1-5-6-12-28-9-20-16-32-12-22-16-30-9-16-14-26-15-28-5-7-2 2-8 71-4 35-4 40-3 53-1 11-25 1h-17l-1-5 8-38 8-47 6-39 7-51 5-39 6-49 8-53z" fill="#231158"/>
<path transform="translate(1858,927)" d="m0 0h37l25 3 20 5 16 6 19 10 17 12 13 11 11 12 12 19 9 19 7 23 4 12v66l-11 33-7 16-11 18-11 13-7 8-10 9-16 11-17 9-19 7-39 9-4 2h-36l-9-3-30-6-21-6-21-9-16-10-14-12-7-7-13-17-10-18-8-22-6-26-2-17v-31l2-16 7-25 6-16 12-23 12-16 14-14 17-13 23-12 24-8 20-4zm9 24-21 3-21 6-16 8-13 10-9 10-10 15-8 17-7 22-4 20-1 8-1 30 2 23 4 22 5 16 6 15 8 13 12 14 13 11 15 8 17 6 20 3 27 1 20-2 15-4 14-6 14-9 10-9 7-7 10-15 7-15 7-21 6-35v-31l-3-22-5-23-7-21-8-16-8-10-9-9-13-9-16-8-18-6-11-2-12-1z" fill="#231058"/>
<path transform="translate(388,927)" d="m0 0h39l25 3 17 4 17 6 19 10 15 10 13 11 12 12 10 14 10 18 8 21 5 25 2 23v21l-2 22-6 23-11 25-11 17-9 11-9 10-11 10-15 10-16 8-30 10-20 4-24 4-1 1h-24v-4h-10l-28-5-15-4-15-6-16-8-11-8-14-12-11-12-11-15-10-18-7-19-5-21-2-13v-50l4-20 7-21 10-19 11-16 12-14 16-16 13-9 16-8 11-5 17-5 25-4zm4 25-25 5-15 6-11 6-13 10-8 8-9 14-9 19-9 27-4 21-2 19v12l3 26 5 23 8 24 7 14 9 11 7 8 10 7 16 9 14 6 9 3 27 3h15l20-3 15-4 16-7 16-10 11-10 10-14 8-16 7-21 5-25 2-17v-27l-2-19-5-26-7-21-9-17-8-10-7-7-14-10-16-8-18-6-19-3z" fill="#231058"/>
<path transform="translate(1164,925)" d="m0 0 8 1 10 7 22 22 7 8 9 9 7 8 11 12 9 10 22 24 7 8 16 17 8 8 7 8 14 15 11 12 9 10 22 24 32 32v-67l-2-110-1-51 12 1h11l12-1 1 6-2 81-1 87-1 153-12-6-18-18-7-8-8-8-7-8-8-8-7-8-7-7-7-8-10-11-7-8-46-49-14-15-7-8-10-11-7-8-12-13-10-10-7-8-9-9-7-8-6-4v97l1 48 3 72v14l-1 1h-22l-4 1h-8l-4-2v-21l2-49 1-61 1-167 1-22z" fill="#231158"/>
<path transform="translate(628,86)" d="m0 0h28l24 3 21 5 25 9 20 9 18 11 17 13 9 7 15 15 11 14 7 10 8 13 12 23 8 21 7 25 3 20 1 10v10l-2 2h-43l-5-5-3-13-4-23-6-21-10-21-9-14-9-12-9-10-11-10-17-12-16-9-21-9-17-5-20-4-13-1h-11l-23 2-23 5-21 8-18 10-14 10-11 9-10 9-7 8-13 18-9 17-8 20-6 28-3 21-1 3-2 1-23 1h-17l-7-1-1-2v-14l4-27 4-15 7-20 10-23 16-27 9-12 9-10 19-19 15-11 18-11 21-11 21-8 24-6 19-3z" fill="#B52930"/>
<path transform="translate(0,932)" d="m0 0h10l14 1h10l6-1h8l1 1v24l-1 42-1 76 12-6 12-11 8-7 11-11 7-8 14-15 7-7 7-8 15-16 9-10 11-12 11-14 12-13 8-5h11l6 1h13l13-1v4l-17 17-8 7-13 13-8 7-90 90-5 4 1 4 8 9 9 11 9 10 9 11 12 13 8 10 13 15 9 10 7 8 9 10 9 11 24 28 9 10 7 10 2 6-1 1h-11l-26-1-11 1h-10l-6-7-14-20-14-19-11-14-13-16-7-9-14-17-11-14-11-13-12-14-9-9-10-6 1 71 2 70v16h-28l-22 1v-28l2-13 1-13 1-31v-128l-1-58-1-21-2-2z" fill="#231058"/>
<path transform="translate(643)" d="m0 0h16l35 6 23 5 24 7 24 10 17 8 24 14 16 11 18 14 12 11 8 7 15 16 13 17 10 15 10 17 8 15 8 19 9 25 6 23 4 23 4 39-1 4h-47l-2-6-5-36-7-30-8-23-14-29-10-17-14-19-11-13-9-10-8-7-9-8-15-11-19-12-19-10-28-10-25-7-33-5-16-2-4-2-1-2-1-14v-18z" fill="#2C3077"/>
<path transform="translate(1502,932)" d="m0 0 38 1h88l41-1 1 1v35l-5 1-24-3-42-3-48-2-1 9-1 31-1 67 83-1 24-2h6l1 3v27l-1 3h-20l-83-3h-9v134l1 20-1 1-30 1h-18l-1-1 2-44v-192l-1-41v-40z" fill="#231058"/>
<path transform="translate(1077,932)" d="m0 0h6l1 1-1 31-1 50v121l1 113-1 1-27 2h-18l-2-5 1-39v-240l-1-32 1-2h34z" fill="#231058"/>
<path transform="translate(644,171)" d="m0 0 24 3 20 5 14 6 16 10 9 7 13 11 10 12 8 13 8 16 5 13 4 18 2 14v5l-4 2-43 1-3-2-4-16-3-13-10-19-8-10-12-10-16-8-17-5-14-3-1-1v-47z" fill="#2C3077"/>
<path transform="translate(1401,822)" d="m0 0h3l11 15 3 4v2h-57l-27-1v-1l22-1 3-1h31l10-2 2-1 1-7z" fill="#322265"/>
<path transform="translate(1390,308)" d="m0 0h13l-4 6-14 17-12 16h-3l3-9 3-5 6-7 1-4 5-10z" fill="#27165D"/>
<path transform="translate(1378,403)" d="m0 0 1 2-1 4 10 5 19 3v1l-19 1h-23l5-8 5-6z" fill="#2A1B60"/>
<path transform="translate(0,943)" d="m0 0 4 1 3 3 2 7-3 7-1 77h-1l-1-58-1-21-2-2z" fill="#4E528D"/>
<path transform="translate(1883,1255)" d="m0 0h13l4 3-4 2h-36l-1-2 7-2z" fill="#2D3178"/>
<path transform="translate(394,1256)" d="m0 0h13l14 1v1l-6 2h-24v-3z" fill="#34387C"/>
<path transform="translate(1071,836)" d="m0 0h1v6h-46v-1l15-1h19l9-2z" fill="#220F57"/>
<path transform="translate(644,171)" d="m0 0 13 2 1 2-13 4h-2v-7z" fill="#28175D"/>
<path transform="translate(356,428)" d="m0 0 2 3v17l-1 5-2-1-1-6v-8z" fill="#332668"/>
<path transform="translate(1959,349)" d="m0 0h1l1 14-1 16-2 3-1-7 1-21z" fill="#220F57"/>
<path transform="translate(643,42)" d="m0 0 4 1 3 1 3 4v3l-9-1-1-1z" fill="#22125A"/>
<path transform="translate(341,778)" d="m0 0h2l-2 4-9 10-4 1 2-4 5-5z" fill="#281A61"/>
<path transform="translate(1959,834)" d="m0 0h2v7h-16v-1l10-2z" fill="#220F57"/>
<path transform="translate(898,297)" d="m0 0 3 3 3 1v2l6 1v1l-11 1-1-1z" fill="#27155C"/>
<path transform="translate(642,215)" d="m0 0 5 1 6 4v2l-10-1-1-1z" fill="#28185F"/>
<path transform="translate(0,932)" d="m0 0h10l-2 1-1 3-4 2h-3z" fill="#30347A"/>
<path transform="translate(1164,945)" d="m0 0 2 4-1 17-2-4v-14z" fill="#2B2F77"/>
<path transform="translate(949,838)" d="m0 0 9 1 4 3h-12z" fill="#220F57"/>
</svg>
